# xmcd
#
# Track frame offsets:
#	150
#	22035
#	34071
#	51925
#	72155
#	93097
#	110273
#	127506
#	145796
#	163625
#	185605
#	206946
#	226581
#	258780
#	268923
#	291156
#
# Disc length: 4085 seconds
#
# Revision: 0
# Processed by: cddbd v1.5.2PL0 Copyright (c) Steve Scherf et al.
# Submitted via: FairStars CD Ripper 1.90
#
DISCID=dc0ff310
DTITLE=Various Artist - The Leland Bluebird Sessions
DYEAR=2015
DGENRE=Blues
TTITLE0=Mae Koen - I Won't Be In Hard Luck No More
TTITLE1=Robbie Fulks - Good Gal
TTITLE2=Chicago Farmer - Sold It To The Devil
TTITLE3=Mary Lou O'Brien - Pallet On The Floor
TTITLE4=The Steepwater Band - Rachel Blues
TTITLE5=Mick Ducker - Honey Bee
TTITLE6=Robbie Fulks - Texas Tommy
TTITLE7=Nora O'Connor - Get Going
TTITLE8=Nora O'Connor - Cold In Hand
TTITLE9=Mick Ducker - Every Day And Night
TTITLE10=Scott Tipping - We Gonna Move
TTITLE11=Reverend Cinchy Pickens - Travel On
TTITLE12=Nora O'Connor - My Baby Left Me
TTITLE13=Chicago Farmer - Bucket's Got A Hole In It
TTITLE14=The Steepwater Band - Sugar Mama Blues
TTITLE15=Dave Nelson - Gonna Kill My Baby
EXTD=
EXTT0=
EXTT1=
EXTT2=
EXTT3=
EXTT4=
EXTT5=
EXTT6=
EXTT7=
EXTT8=
EXTT9=
EXTT10=
EXTT11=
EXTT12=
EXTT13=
EXTT14=
EXTT15=
PLAYORDER=
